<?xml version="1.0" encoding="UTF-8"?>
<svg id="Layer_1" data-name="Layer 1" xmlns="http://www.w3.org/2000/svg" viewBox="0 0 933.65 808.36">
  <defs>
    <style>
      .cls-1 {
        fill: #dcbf7c;
      }
    </style>
  </defs>
  <path class="cls-1" d="M659.07,633.22h-102.21s-27.68-39.75-85.27-39.75-82.64,39.75-82.64,39.75h-101.39v-46.24s83.55-17.03,83.55-77.87-120.05-71.38-157.36-103.83c-37.31-32.45-60.84-41.37-64.08-81.12h157.36v38.94h15.41v-46.24h461.55v37.31c0,51.75-223.07,52.73-214.15,151.69,10.55,69.76,89.23,77.87,89.23,77.87v49.48Z"/>
  <path class="cls-1" d="M473.72,141.66c-96.09,0-173.99,29.05-173.99,64.89s77.9,64.89,173.99,64.89,173.99-29.05,173.99-64.89-77.9-64.89-173.99-64.89ZM473.72,251.17c-84.89,0-153.71-19.97-153.71-44.61s68.82-44.61,153.71-44.61,153.71,19.97,153.71,44.61-68.82,44.61-153.71,44.61Z"/>
</svg>