<?xml version="1.0" encoding="UTF-8"?>
<svg id="Layer_1" xmlns="http://www.w3.org/2000/svg" version="1.1" viewBox="0 0 350 75">
  <!-- Generator: Adobe Illustrator 29.8.2, SVG Export Plug-In . SVG Version: 2.1.1 Build 3)  -->
  <defs>
    <style>
      .st0 {
        fill: linen;
      }

      .st1 {
        fill: #d4af37;
      }
    </style>
  </defs>
  <g>
    <path class="st0" d="M98.62,25.91c2.11,0,6.96-.11,13.28-.11.21,0,.32-.21.39-.93.04-.46.04-5.11-.07-6.5-.11-1.32-.36-1.61-1.96-2.04-.5-.14-.89-.36-.89-.68,0-.25.36-.39,1.11-.39.46,0,2.75.07,3.64.07,1.21,0,2.86-.11,3.25-.11.57,0,1,.11,1,.39,0,.21-.29.46-1.04.64-1.5.36-1.79,1-1.86,2.04-.18,1.82-.29,5.68-.29,11.75,0,1.57.14,4.75.14,5.28.07,1.39.43,1.54,2.04,2,.5.18.82.43.82.68,0,.29-.32.39-1,.39-.57,0-1.86-.11-2.96-.11-.79,0-3.46.21-4.18.21-.54,0-.89-.07-.89-.39s.39-.53.79-.64c1.93-.57,2.11-.97,2.21-3.5.07-1.5.14-3.96.14-5.75,0-.64-.14-.75-.43-.75-5.54,0-12.57-.11-13.28-.04-.11,0-.39.32-.39.61-.07.93,0,5.5,0,6.53.04,1.68.43,2.32,1.93,2.79.79.22,1.04.36,1.07.71.04.29-.57.36-1.04.36-.25,0-2.43-.14-3.71-.14-.82,0-2.32.14-3.54.14-.79,0-1.07-.14-1.07-.36,0-.36.43-.57.82-.68,1.82-.46,2.11-.82,2.25-2.21.11-1.46.32-5.5.32-11.32,0-.64.07-3.93,0-5.5-.07-1.21-.29-1.71-1.79-2.04-.75-.14-1-.39-1-.68,0-.25.46-.39,1.04-.39,1,0,2.32.07,3.25.07,1.5,0,2.57-.07,3.39-.07.75,0,1.14.18,1.14.39,0,.36-.29.54-1.04.68-1.68.32-1.79.86-1.89,2.36-.11,1.18-.14,5.89-.11,6.5.04.68.14.71.39.71l.02.03Z"/>
    <path class="st0" d="M135.69,15.62c.29.96.89,2.57,1.57,4.43,1.86,5.21,4.54,12.28,5.14,13.75,1.18,2.93,1.75,3.21,3.36,3.61.57.18.86.36.86.61s-.25.46-1.14.46c-1.18,0-2.93-.18-4.5-.18-1.14,0-1.64.07-2.54.07s-1.11-.25-1.11-.43.21-.46.86-.57c1.71-.36,1.57-1.07,1.43-1.82-.29-1.46-1.18-3.82-2-6.11-.04-.14-.18-.36-1.21-.36-1.96,0-5.11.04-5.86.14-.14,0-.32.18-.39.29-.93,2.32-1.86,5.36-1.86,6.25,0,.43.14,1.03,1.75,1.54.61.18.96.39.96.64,0,.36-.54.46-1,.46-.61,0-1.5-.11-2.82-.11s-3.18.18-3.71.18c-.64,0-.82-.14-.82-.36s.25-.53.79-.71c1.79-.61,2.25-.71,3.29-3.04.82-1.82,4.89-12.61,6.39-16.25.21-.5.25-.71.32-.93.04-.11.11-.32.25-.61.21-.36.61-1.04.86-1.43.25-.29.39-.46.57-.46.14,0,.29.14.57.93h-.01ZM136.83,27.2c-.61-1.82-2.46-7.18-2.79-7.68-.11-.21-.18-.25-.29,0-.64,1.71-2.5,6.71-2.79,7.82-.04.14.04.25.18.25,1.43-.04,4.39,0,5.57-.11.04,0,.14-.18.11-.29h0Z"/>
    <path class="st0" d="M152.22,15.27c.96,0,1.61.07,2.64.07,1.39,0,3.82-.11,4.68-.11.64,0,.89.14.89.39s-.29.46-.82.61c-2.07.46-2.32.86-2.39,1.39-.21,1.61-.21,5.21-.21,10.5,0,2.79.11,6.21.25,7.39.07.5.93,1.32,1.21,1.36.93.14,2.25.18,3.43.18,1,0,2-.04,2.54-.11.29-.04.71-.04,1.43-.68.5-.5,1.07-1.04,2.04-2.39.39-.64.71-.79.89-.79s.29.39.14.97c-.57,1.75-.82,2.5-1.11,3.86-.04.39-.71.61-.86.61-.43,0-3.68-.21-10.93-.21-2.43,0-4.11.18-4.61.18-.68,0-1.04-.07-1.04-.39,0-.25.29-.54.86-.64,1.96-.39,2.46-1.07,2.64-2.46.07-.89.18-6.57.18-11.75,0-1.43,0-3.89-.04-5.07-.04-.79-.21-1.46-1.89-1.79-.71-.14-1-.43-1-.68s.29-.43,1.07-.43h.01Z"/>
    <path class="st0" d="M198.39,26.52c0,5-2.46,8.5-5.07,10.36-2.25,1.57-5.21,2.07-7.04,2.07-3.64,0-7.11-1.57-9.28-4.07-1.89-2.11-2.96-5-2.96-8.07,0-4.39,1.93-7.43,4.64-9.61,1.75-1.43,4.82-2.5,7.32-2.5,6.86,0,12.39,5.04,12.39,11.82ZM180.29,17.91c-1.57,1.54-2.79,4.21-2.79,8.39,0,5.32,3.93,11.43,9.64,11.43,2.96,0,4.32-1.29,4.71-1.71,1.43-1.29,3.04-4.18,3.04-8.43,0-3.89-1.68-7.64-4.32-9.79-1.46-1.18-3.71-1.93-5.36-1.93-1.5,0-3.68.79-4.93,2.04h0Z"/>
    <path class="st0" d="M223.21,15.34c2.14,0,5.43-.11,5.71-.11.18-.04.43.14.43.36-.07,1.04.07,2.29.11,3.5.04.46-.18.97-.5.97-.29,0-.57-.39-.79-1.11-.57-1.75-.96-2.07-2.14-2.25-1.21-.18-4.79-.14-5.54-.07-.36.04-.57.36-.57.46-.07.86-.14,5.54-.14,7.89,0,.96.18,1.32.36,1.32,1.39,0,4.29.04,5.14-.04,1.11-.11,1.43-.43,1.93-1.64.21-.5.36-.86.68-.86.25,0,.32.36.32.79,0,.46-.18,1.61-.18,2.25,0,1.71.07,2.04.07,2.82,0,.39-.18.82-.54.82-.18,0-.39-.25-.53-.75-.36-1.36-.79-1.54-1.46-1.71-.39-.07-1.68-.18-2.39-.18s-2.39,0-3.14.11c-.11,0-.25.29-.29.43-.04.68.11,5.68.14,6.71.04,1.11.11,1.82,2.43,2.25.54.11.86.36.86.68,0,.21-.32.43-1,.43-.93,0-2.04-.11-3.39-.11-1.43,0-3.5.21-4.25.21s-1-.14-1-.36c0-.29.39-.57.96-.71,1.93-.46,2-1.29,2.04-1.75.11-1.11.29-3.75.29-10.82,0-3.36,0-5.46-.07-6.39-.07-1.21-.68-1.82-2.25-2.21-.71-.18-.89-.36-.89-.61,0-.29.43-.43,1-.43,1.57,0,2.86.11,3.96.11h4.64-.01Z"/>
    <path class="st0" d="M259.95,26.52c0,5-2.46,8.5-5.07,10.36-2.25,1.57-5.21,2.07-7.04,2.07-3.64,0-7.11-1.57-9.28-4.07-1.89-2.11-2.96-5-2.96-8.07,0-4.39,1.93-7.43,4.64-9.61,1.75-1.43,4.82-2.5,7.32-2.5,6.86,0,12.39,5.04,12.39,11.82ZM241.85,17.91c-1.57,1.54-2.79,4.21-2.79,8.39,0,5.32,3.93,11.43,9.64,11.43,2.96,0,4.32-1.29,4.71-1.71,1.43-1.29,3.04-4.18,3.04-8.43,0-3.89-1.68-7.64-4.32-9.79-1.46-1.18-3.71-1.93-5.36-1.93-1.5,0-3.68.79-4.93,2.04h0Z"/>
    <path class="st0" d="M279.7,26.12c-.18.11-.86.43-1.11.61-.11.07-.21.39-.14.53.36.86,3.36,5.68,5.54,8.11.96,1.14,1.93,1.79,3.5,2.11.29.07.57.36.57.5,0,.21-.29.36-.5.46-.43.18-1.21.25-1.96.25-1.68,0-3.71-1-4.75-2.32-1.25-1.71-3.07-4.46-4.5-6.71-.5-.75-1.21-1.64-1.43-1.78-.14-.14-1.46-.46-2.54-.46-.25,0-.43.32-.43.43-.04.61.04,5.14.14,7.21.07,1.5.46,2,2.14,2.39.61.18.86.43.86.61,0,.36-.68.46-.86.46-1.5,0-2.18-.21-4.61-.21-.64,0-2.5.14-2.89.14-.46,0-.93-.14-.93-.5,0-.29.32-.36.79-.53,1.57-.5,2.21-.71,2.32-2.07.07-1.11.21-4.89.21-7.04,0-5.5-.07-8.75-.21-10.14-.14-1.32-.46-1.39-2.07-1.79-.53-.14-.86-.32-.86-.61,0-.25.18-.43.97-.43h2c1.32,0,3.86-.18,5.79-.18,2.46,0,4.39.32,5.82,1.5,1.18.96,2.04,2.75,2.04,4.46,0,1.93-1.14,3.93-2.89,5h-.01ZM277.81,17.62c-.86-.82-2.39-1.36-3.54-1.36-.18,0-1.32.07-1.71.25-.18.07-.43.61-.43.75-.11,1.25-.21,8.14-.11,8.75.07.29.36.54.57.54,2.07,0,3.96-.61,4.46-.93.96-.61,2.36-2.18,2.36-4.43,0-.86-.57-2.54-1.61-3.57h0Z"/>
    <path class="st0" d="M310.16,15.48c.71.14.96.18,1.36.29.14,0,.43.29.43.86.04.86.5,2.57.5,3.93,0,.46-.22.79-.46.79-.22,0-.43-.29-.64-.82-.36-.96-.82-1.82-1.36-2.5-.79-.96-2.86-2.21-5.71-2.21-6.11,0-9.71,5-9.71,10.64,0,2.53.57,4.79,1.61,6.5,1.89,3.21,5.32,4.93,8.64,4.93.43,0,2.21-.22,3.21-.86.29-.18.75-1.39.75-1.86,0-1.25-.04-3.28-.11-3.71-.25-.82-.54-1.5-3.21-1.68-.54-.04-.93-.32-.93-.61,0-.25.39-.5,1.07-.5.64,0,3.25.14,4.29.14.86,0,2.07-.14,3.21-.14.57,0,.96.18.96.46,0,.25-.39.46-.82.61-1.07.32-1.14.71-1.29,1.11-.14.39-.18,2.96-.18,4.43,0,.57.32.93.5,1.04.64.36.61.46.61.64,0,.14-.14.39-.54.5-.64.18-1.86.46-3.25.86-1.54.43-3.75.64-4.93.64-4,0-7.32-1.29-9.5-3.25-1.64-1.57-3.68-4.5-3.68-8.78,0-3.18,1.11-6.43,4.04-9,2.25-2,5.68-3.21,9.14-3.21,2.61,0,4.5.46,6,.79v-.03Z"/>
    <path class="st0" d="M331.44,15.34c1.18,0,2.75-.04,3.28-.11.11-.04.29.21.32.39,0,1.64.07,2.68.07,3.39,0,.5-.21.93-.53.93s-.5-.5-.57-.86c-.46-1.89-1.25-2.25-2.39-2.43-.93-.14-3.5-.21-5.07-.14-.07,0-.46.18-.53,1-.07.89-.18,7.61-.11,8.14.04.14.07.36.25.36h2.32c3.36,0,3.5-.14,4.14-1.79.21-.53.43-.75.64-.75.25,0,.32.5.29.79-.07,1-.11,1.71-.11,2.57,0,.96.07,1.46.11,2.18.04.64-.14,1.04-.39,1.04s-.5-.39-.61-.79c-.5-1.64-.64-1.75-2.82-1.86-1.14-.07-2.57-.07-3.54-.07-.14,0-.32.25-.32.32-.14.75-.11,4.07-.11,5.61,0,1.04.14,2.39.36,2.96.14.43.43.71.68.79.61.11,1.82.25,3.25.25.43,0,2.61-.04,3.39-.25,1.14-.29,2.11-.96,2.96-2.64.39-.79.61-1,.82-1,.25,0,.36.57.28.97-.04.29-1.03,3.5-1.29,3.82-.11.14-.43.43-.61.43-.39,0-5.79-.29-11.61-.29-1.89,0-2.68.18-4.04.18-.68,0-1.07-.07-1.07-.46,0-.25.43-.43,1-.57,1.78-.43,2.46-.68,2.61-2.61.11-1.5.29-5.71.29-10.14s.04-5-.04-6.03c-.07-1.57-.43-2-2-2.36-.75-.18-1.04-.32-1.04-.61,0-.32.5-.5,1-.5,1.68,0,3.07.14,5.46.14h5.28Z"/>
  </g>
  <g>
    <path class="st0" d="M92.73,61.18l.69-1.36c1.2,1.17,3.33,2.03,5.53,2.03,3.14,0,4.5-1.32,4.5-2.97,0-4.59-10.31-1.77-10.31-7.97,0-2.46,1.91-4.59,6.17-4.59,1.89,0,3.85.55,5.19,1.48l-.6,1.41c-1.44-.93-3.11-1.39-4.59-1.39-3.06,0-4.43,1.36-4.43,3.04,0,4.59,10.31,1.82,10.31,7.92,0,2.46-1.96,4.57-6.25,4.57-2.51,0-4.98-.89-6.22-2.18h0Z"/>
    <path class="st0" d="M115.66,48h-5.89v-1.53h13.54v1.53h-5.89v15.22h-1.77v-15.22h0Z"/>
    <path class="st0" d="M129.25,56.06v-9.6h1.77v9.52c0,3.97,1.87,5.79,5.12,5.79s5.14-1.82,5.14-5.79v-9.52h1.72v9.6c0,4.81-2.58,7.3-6.87,7.3s-6.89-2.49-6.89-7.3h0Z"/>
    <path class="st0" d="M151.94,46.46h6.82c5.36,0,8.97,3.45,8.97,8.37s-3.61,8.37-8.97,8.37h-6.82v-16.75h0ZM158.66,61.68c4.45,0,7.32-2.82,7.32-6.84s-2.87-6.84-7.32-6.84h-4.95v13.69h4.95Z"/>
    <path class="st0" d="M175.29,46.46h1.77v16.75h-1.77v-16.75Z"/>
    <path class="st0" d="M184.63,54.84c0-4.88,3.73-8.52,8.81-8.52s8.78,3.61,8.78,8.52-3.76,8.52-8.78,8.52-8.81-3.64-8.81-8.52ZM200.44,54.84c0-4-2.99-6.94-7.01-6.94s-7.06,2.94-7.06,6.94,3.01,6.94,7.06,6.94,7.01-2.94,7.01-6.94Z"/>
  </g>
  <g>
    <path class="st1" d="M65.57,61.58h-10.04s-2.72-3.9-8.38-3.9-8.12,3.9-8.12,3.9h-9.96v-4.54s8.21-1.67,8.21-7.65-11.79-7.01-15.46-10.2c-3.66-3.19-5.98-4.06-6.29-7.97h15.46v3.82h1.51v-4.54h45.33v3.66c0,5.08-21.91,5.18-21.03,14.9,1.04,6.85,8.76,7.65,8.76,7.65v4.86h0Z"/>
    <path class="st1" d="M47.36,13.3c-9.44,0-17.09,2.85-17.09,6.37s7.65,6.37,17.09,6.37,17.09-2.85,17.09-6.37-7.65-6.37-17.09-6.37ZM47.36,24.06c-8.34,0-15.1-1.96-15.1-4.38s6.76-4.38,15.1-4.38,15.1,1.96,15.1,4.38-6.76,4.38-15.1,4.38Z"/>
  </g>
</svg>